<svg xmlns="http://www.w3.org/2000/svg" xmlns:xlink="http://www.w3.org/1999/xlink" version="1.1" width="256" height="256" viewBox="0 0 256 256" xml:space="preserve">
<desc>Created with Fabric.js 1.7.22</desc>
<defs>
</defs>
<g transform="translate(128 128) scale(0.72 0.72)" style="">
	<g style="stroke: none; stroke-width: 0; stroke-dasharray: none; stroke-linecap: butt; stroke-linejoin: miter; stroke-miterlimit: 10; fill: none; fill-rule: nonzero; opacity: 1;" transform="translate(-175.05 -175.05000000000004) scale(3.89 3.89)" >
	<path d="M 89.382 28.315 L 69.521 8.455 c -0.824 -0.824 -2.16 -0.824 -2.984 0 L 37.644 37.348 L 23.463 23.167 c -0.824 -0.824 -2.16 -0.824 -2.984 0 L 0.618 43.027 c -0.824 0.824 -0.824 2.16 0 2.984 l 35.534 35.534 c 0.824 0.824 2.16 0.824 2.984 0 l 19.861 -19.861 l 30.385 -30.385 C 90.206 30.475 90.206 29.139 89.382 28.315 z" style="stroke: none; stroke-width: 1; stroke-dasharray: none; stroke-linecap: butt; stroke-linejoin: miter; stroke-miterlimit: 10; fill: #0232cf; fill-rule: nonzero; opacity: 1;" transform=" matrix(1 0 0 1 0 0) " stroke-linecap="round" />
</g>
</g>
</svg>